<mxfile host="app.diagrams.net" agent="Mozilla/5.0 (Windows NT 10.0; Win64; x64) AppleWebKit/537.36 (KHTML, like Gecko) Chrome/130.0.0.0 YaBrowser/24.12.0.0 Safari/537.36" version="25.0.3">
  <diagram name="Страница — 1" id="_3Yx3TwnmL5n9iKDvyvT">
    <mxGraphModel dx="2117" dy="567" grid="1" gridSize="10" guides="1" tooltips="1" connect="1" arrows="1" fold="1" page="1" pageScale="1" pageWidth="827" pageHeight="1169" math="0" shadow="0">
      <root>
        <mxCell id="0" />
        <mxCell id="1" parent="0" />
        <mxCell id="0tHptBEXW9YMDKYTyZmh-1" style="edgeStyle=orthogonalEdgeStyle;rounded=0;orthogonalLoop=1;jettySize=auto;html=1;" parent="1" source="0tHptBEXW9YMDKYTyZmh-2" target="0tHptBEXW9YMDKYTyZmh-4" edge="1">
          <mxGeometry relative="1" as="geometry" />
        </mxCell>
        <mxCell id="0tHptBEXW9YMDKYTyZmh-2" value="&lt;div&gt;Kol&lt;/div&gt;Начало" style="ellipse;whiteSpace=wrap;html=1;" parent="1" vertex="1">
          <mxGeometry x="100" y="60" width="140" height="50" as="geometry" />
        </mxCell>
        <mxCell id="0tHptBEXW9YMDKYTyZmh-3" style="edgeStyle=orthogonalEdgeStyle;rounded=0;orthogonalLoop=1;jettySize=auto;html=1;" parent="1" source="0tHptBEXW9YMDKYTyZmh-4" target="0tHptBEXW9YMDKYTyZmh-5" edge="1">
          <mxGeometry relative="1" as="geometry" />
        </mxCell>
        <mxCell id="0tHptBEXW9YMDKYTyZmh-4" value="s" style="shape=parallelogram;perimeter=parallelogramPerimeter;whiteSpace=wrap;html=1;fixedSize=1;" parent="1" vertex="1">
          <mxGeometry x="95" y="130" width="150" height="50" as="geometry" />
        </mxCell>
        <mxCell id="0tHptBEXW9YMDKYTyZmh-16" style="edgeStyle=orthogonalEdgeStyle;rounded=0;orthogonalLoop=1;jettySize=auto;html=1;" parent="1" source="0tHptBEXW9YMDKYTyZmh-5" target="0tHptBEXW9YMDKYTyZmh-15" edge="1">
          <mxGeometry relative="1" as="geometry" />
        </mxCell>
        <mxCell id="0tHptBEXW9YMDKYTyZmh-5" value="&lt;div&gt;s := &#39; &#39; + s&lt;/div&gt;k := 0;&lt;div&gt;i := 2&lt;/div&gt;" style="rounded=0;whiteSpace=wrap;html=1;align=center;" parent="1" vertex="1">
          <mxGeometry x="105" y="200" width="130" height="50" as="geometry" />
        </mxCell>
        <mxCell id="0tHptBEXW9YMDKYTyZmh-6" value="&lt;div&gt;Kol&lt;/div&gt;Конец" style="ellipse;whiteSpace=wrap;html=1;" parent="1" vertex="1">
          <mxGeometry x="100" y="1221" width="140" height="50" as="geometry" />
        </mxCell>
        <mxCell id="0tHptBEXW9YMDKYTyZmh-10" value="" style="shape=partialRectangle;whiteSpace=wrap;html=1;bottom=1;right=1;left=1;top=0;fillColor=none;routingCenterX=-0.5;rotation=90;" parent="1" vertex="1">
          <mxGeometry x="270" y="150" width="30" height="10" as="geometry" />
        </mxCell>
        <mxCell id="0tHptBEXW9YMDKYTyZmh-13" value="" style="endArrow=none;dashed=1;html=1;rounded=0;entryX=0.5;entryY=1;entryDx=0;entryDy=0;entryPerimeter=0;" parent="1" source="0tHptBEXW9YMDKYTyZmh-4" target="0tHptBEXW9YMDKYTyZmh-10" edge="1">
          <mxGeometry width="50" height="50" relative="1" as="geometry">
            <mxPoint x="390" y="190" as="sourcePoint" />
            <mxPoint x="440" y="140" as="targetPoint" />
          </mxGeometry>
        </mxCell>
        <mxCell id="0tHptBEXW9YMDKYTyZmh-14" value="передача параметра s по значению" style="text;html=1;align=left;verticalAlign=middle;whiteSpace=wrap;rounded=0;" parent="1" vertex="1">
          <mxGeometry x="290" y="140" width="134" height="30" as="geometry" />
        </mxCell>
        <mxCell id="0tHptBEXW9YMDKYTyZmh-18" style="edgeStyle=orthogonalEdgeStyle;rounded=0;orthogonalLoop=1;jettySize=auto;html=1;" parent="1" source="0tHptBEXW9YMDKYTyZmh-15" target="0tHptBEXW9YMDKYTyZmh-17" edge="1">
          <mxGeometry relative="1" as="geometry" />
        </mxCell>
        <mxCell id="0tHptBEXW9YMDKYTyZmh-15" value="Цикл 1&lt;div&gt;i &amp;gt;= length(s)&lt;/div&gt;" style="shape=loopLimit;whiteSpace=wrap;html=1;" parent="1" vertex="1">
          <mxGeometry x="105" y="270" width="130" height="60" as="geometry" />
        </mxCell>
        <mxCell id="0tHptBEXW9YMDKYTyZmh-20" style="edgeStyle=orthogonalEdgeStyle;rounded=0;orthogonalLoop=1;jettySize=auto;html=1;" parent="1" source="0tHptBEXW9YMDKYTyZmh-17" target="0tHptBEXW9YMDKYTyZmh-19" edge="1">
          <mxGeometry relative="1" as="geometry" />
        </mxCell>
        <mxCell id="0tHptBEXW9YMDKYTyZmh-43" style="edgeStyle=orthogonalEdgeStyle;rounded=0;orthogonalLoop=1;jettySize=auto;html=1;exitX=1;exitY=0.5;exitDx=0;exitDy=0;" parent="1" source="0tHptBEXW9YMDKYTyZmh-17" target="0tHptBEXW9YMDKYTyZmh-42" edge="1">
          <mxGeometry relative="1" as="geometry">
            <Array as="points">
              <mxPoint x="260" y="380" />
            </Array>
          </mxGeometry>
        </mxCell>
        <mxCell id="0tHptBEXW9YMDKYTyZmh-17" value="s[ i ]&amp;lt;&amp;gt;&#39; &#39;&lt;div&gt;и s[ i-1 ]=&#39; &#39;&lt;/div&gt;" style="rhombus;whiteSpace=wrap;html=1;" parent="1" vertex="1">
          <mxGeometry x="110" y="350" width="120" height="60" as="geometry" />
        </mxCell>
        <mxCell id="0tHptBEXW9YMDKYTyZmh-22" style="edgeStyle=orthogonalEdgeStyle;rounded=0;orthogonalLoop=1;jettySize=auto;html=1;" parent="1" source="0tHptBEXW9YMDKYTyZmh-19" target="0tHptBEXW9YMDKYTyZmh-21" edge="1">
          <mxGeometry relative="1" as="geometry" />
        </mxCell>
        <mxCell id="0tHptBEXW9YMDKYTyZmh-19" value="j := i;&lt;div&gt;s1 := &#39;&#39;&lt;/div&gt;" style="rounded=0;whiteSpace=wrap;html=1;align=center;" parent="1" vertex="1">
          <mxGeometry x="105" y="430" width="130" height="50" as="geometry" />
        </mxCell>
        <mxCell id="0tHptBEXW9YMDKYTyZmh-25" style="edgeStyle=orthogonalEdgeStyle;rounded=0;orthogonalLoop=1;jettySize=auto;html=1;" parent="1" source="0tHptBEXW9YMDKYTyZmh-21" target="0tHptBEXW9YMDKYTyZmh-24" edge="1">
          <mxGeometry relative="1" as="geometry" />
        </mxCell>
        <mxCell id="0tHptBEXW9YMDKYTyZmh-21" value="Цикл 1.1&lt;div&gt;j &amp;gt; length(s) и&lt;/div&gt;&lt;div&gt;s[ j ] = 0&lt;/div&gt;" style="shape=loopLimit;whiteSpace=wrap;html=1;" parent="1" vertex="1">
          <mxGeometry x="105" y="520" width="130" height="60" as="geometry" />
        </mxCell>
        <mxCell id="0tHptBEXW9YMDKYTyZmh-27" style="edgeStyle=orthogonalEdgeStyle;rounded=0;orthogonalLoop=1;jettySize=auto;html=1;" parent="1" source="0tHptBEXW9YMDKYTyZmh-24" target="0tHptBEXW9YMDKYTyZmh-26" edge="1">
          <mxGeometry relative="1" as="geometry" />
        </mxCell>
        <mxCell id="0tHptBEXW9YMDKYTyZmh-24" value="&lt;div&gt;s1:=s1+s[ j ];&lt;/div&gt;&lt;div&gt;&amp;nbsp; &amp;nbsp; j += 1;&lt;/div&gt;" style="rounded=0;whiteSpace=wrap;html=1;align=center;" parent="1" vertex="1">
          <mxGeometry x="105" y="600" width="130" height="50" as="geometry" />
        </mxCell>
        <mxCell id="3Bi1ObQINQKHxnFcQAb5-2" style="edgeStyle=orthogonalEdgeStyle;rounded=0;orthogonalLoop=1;jettySize=auto;html=1;" parent="1" source="0tHptBEXW9YMDKYTyZmh-26" target="0tHptBEXW9YMDKYTyZmh-35" edge="1">
          <mxGeometry relative="1" as="geometry" />
        </mxCell>
        <mxCell id="0tHptBEXW9YMDKYTyZmh-26" value="Цикл 1.1" style="shape=loopLimit;whiteSpace=wrap;html=1;direction=west;" parent="1" vertex="1">
          <mxGeometry x="105" y="670" width="130" height="60" as="geometry" />
        </mxCell>
        <mxCell id="0tHptBEXW9YMDKYTyZmh-51" style="edgeStyle=orthogonalEdgeStyle;rounded=0;orthogonalLoop=1;jettySize=auto;html=1;" parent="1" source="0tHptBEXW9YMDKYTyZmh-31" target="0tHptBEXW9YMDKYTyZmh-50" edge="1">
          <mxGeometry relative="1" as="geometry" />
        </mxCell>
        <mxCell id="0tHptBEXW9YMDKYTyZmh-31" value="Цикл 1" style="shape=loopLimit;whiteSpace=wrap;html=1;direction=west;" parent="1" vertex="1">
          <mxGeometry x="105" y="1071" width="130" height="60" as="geometry" />
        </mxCell>
        <mxCell id="0tHptBEXW9YMDKYTyZmh-38" style="edgeStyle=orthogonalEdgeStyle;rounded=0;orthogonalLoop=1;jettySize=auto;html=1;" parent="1" source="0tHptBEXW9YMDKYTyZmh-35" target="0tHptBEXW9YMDKYTyZmh-36" edge="1">
          <mxGeometry relative="1" as="geometry" />
        </mxCell>
        <mxCell id="0tHptBEXW9YMDKYTyZmh-41" style="edgeStyle=orthogonalEdgeStyle;rounded=0;orthogonalLoop=1;jettySize=auto;html=1;exitX=1;exitY=0.5;exitDx=0;exitDy=0;" parent="1" source="0tHptBEXW9YMDKYTyZmh-35" edge="1">
          <mxGeometry relative="1" as="geometry">
            <mxPoint x="170" y="901" as="targetPoint" />
            <Array as="points">
              <mxPoint x="250" y="781" />
              <mxPoint x="250" y="901" />
            </Array>
          </mxGeometry>
        </mxCell>
        <mxCell id="0tHptBEXW9YMDKYTyZmh-35" value="j &amp;gt; length(s1)" style="rhombus;whiteSpace=wrap;html=1;" parent="1" vertex="1">
          <mxGeometry x="110" y="751" width="120" height="60" as="geometry" />
        </mxCell>
        <mxCell id="0tHptBEXW9YMDKYTyZmh-40" style="edgeStyle=orthogonalEdgeStyle;rounded=0;orthogonalLoop=1;jettySize=auto;html=1;" parent="1" source="0tHptBEXW9YMDKYTyZmh-36" target="0tHptBEXW9YMDKYTyZmh-39" edge="1">
          <mxGeometry relative="1" as="geometry" />
        </mxCell>
        <mxCell id="0tHptBEXW9YMDKYTyZmh-36" value="k += 1" style="rounded=0;whiteSpace=wrap;html=1;align=center;" parent="1" vertex="1">
          <mxGeometry x="105" y="831" width="130" height="50" as="geometry" />
        </mxCell>
        <mxCell id="0tHptBEXW9YMDKYTyZmh-45" style="edgeStyle=orthogonalEdgeStyle;rounded=0;orthogonalLoop=1;jettySize=auto;html=1;" parent="1" source="0tHptBEXW9YMDKYTyZmh-39" target="0tHptBEXW9YMDKYTyZmh-31" edge="1">
          <mxGeometry relative="1" as="geometry" />
        </mxCell>
        <mxCell id="0tHptBEXW9YMDKYTyZmh-39" value="i += length(s1)" style="rounded=0;whiteSpace=wrap;html=1;align=center;" parent="1" vertex="1">
          <mxGeometry x="105" y="921" width="130" height="50" as="geometry" />
        </mxCell>
        <mxCell id="0tHptBEXW9YMDKYTyZmh-46" style="edgeStyle=orthogonalEdgeStyle;rounded=0;orthogonalLoop=1;jettySize=auto;html=1;" parent="1" source="0tHptBEXW9YMDKYTyZmh-42" target="0tHptBEXW9YMDKYTyZmh-31" edge="1">
          <mxGeometry relative="1" as="geometry">
            <Array as="points">
              <mxPoint x="265" y="1051" />
              <mxPoint x="170" y="1051" />
            </Array>
          </mxGeometry>
        </mxCell>
        <mxCell id="0tHptBEXW9YMDKYTyZmh-42" value="i += 1" style="rounded=0;whiteSpace=wrap;html=1;align=center;" parent="1" vertex="1">
          <mxGeometry x="200" y="991" width="130" height="50" as="geometry" />
        </mxCell>
        <mxCell id="0tHptBEXW9YMDKYTyZmh-52" style="edgeStyle=orthogonalEdgeStyle;rounded=0;orthogonalLoop=1;jettySize=auto;html=1;" parent="1" source="0tHptBEXW9YMDKYTyZmh-50" target="0tHptBEXW9YMDKYTyZmh-6" edge="1">
          <mxGeometry relative="1" as="geometry" />
        </mxCell>
        <mxCell id="0tHptBEXW9YMDKYTyZmh-50" value="Вернуть k" style="shape=parallelogram;perimeter=parallelogramPerimeter;whiteSpace=wrap;html=1;fixedSize=1;" parent="1" vertex="1">
          <mxGeometry x="95" y="1151" width="150" height="50" as="geometry" />
        </mxCell>
        <mxCell id="0tHptBEXW9YMDKYTyZmh-57" style="edgeStyle=orthogonalEdgeStyle;rounded=0;orthogonalLoop=1;jettySize=auto;html=1;" parent="1" source="0tHptBEXW9YMDKYTyZmh-53" target="0tHptBEXW9YMDKYTyZmh-56" edge="1">
          <mxGeometry relative="1" as="geometry" />
        </mxCell>
        <mxCell id="0tHptBEXW9YMDKYTyZmh-53" value="Начало&lt;div&gt;&lt;/div&gt;" style="ellipse;whiteSpace=wrap;html=1;" parent="1" vertex="1">
          <mxGeometry x="-315" y="60" width="140" height="50" as="geometry" />
        </mxCell>
        <mxCell id="0tHptBEXW9YMDKYTyZmh-54" value="Конец&lt;div&gt;&lt;/div&gt;" style="ellipse;whiteSpace=wrap;html=1;" parent="1" vertex="1">
          <mxGeometry x="-315" y="360" width="140" height="50" as="geometry" />
        </mxCell>
        <mxCell id="0tHptBEXW9YMDKYTyZmh-59" style="edgeStyle=orthogonalEdgeStyle;rounded=0;orthogonalLoop=1;jettySize=auto;html=1;" parent="1" source="0tHptBEXW9YMDKYTyZmh-56" target="0tHptBEXW9YMDKYTyZmh-58" edge="1">
          <mxGeometry relative="1" as="geometry" />
        </mxCell>
        <mxCell id="0tHptBEXW9YMDKYTyZmh-56" value="Ввод s" style="shape=parallelogram;perimeter=parallelogramPerimeter;whiteSpace=wrap;html=1;fixedSize=1;" parent="1" vertex="1">
          <mxGeometry x="-320" y="130" width="150" height="50" as="geometry" />
        </mxCell>
        <mxCell id="0tHptBEXW9YMDKYTyZmh-61" style="edgeStyle=orthogonalEdgeStyle;rounded=0;orthogonalLoop=1;jettySize=auto;html=1;" parent="1" source="0tHptBEXW9YMDKYTyZmh-58" target="0tHptBEXW9YMDKYTyZmh-60" edge="1">
          <mxGeometry relative="1" as="geometry" />
        </mxCell>
        <mxCell id="0tHptBEXW9YMDKYTyZmh-58" value="res := Kol(s)" style="shape=process;whiteSpace=wrap;html=1;backgroundOutline=1;" parent="1" vertex="1">
          <mxGeometry x="-312.5" y="204" width="135" height="60" as="geometry" />
        </mxCell>
        <mxCell id="0tHptBEXW9YMDKYTyZmh-62" style="edgeStyle=orthogonalEdgeStyle;rounded=0;orthogonalLoop=1;jettySize=auto;html=1;" parent="1" source="0tHptBEXW9YMDKYTyZmh-60" target="0tHptBEXW9YMDKYTyZmh-54" edge="1">
          <mxGeometry relative="1" as="geometry" />
        </mxCell>
        <mxCell id="0tHptBEXW9YMDKYTyZmh-60" value="Вывод res" style="shape=parallelogram;perimeter=parallelogramPerimeter;whiteSpace=wrap;html=1;fixedSize=1;" parent="1" vertex="1">
          <mxGeometry x="-320" y="290" width="150" height="50" as="geometry" />
        </mxCell>
        <mxCell id="1L9grkiTSk2YJUDUn9pY-2" value="" style="shape=partialRectangle;whiteSpace=wrap;html=1;bottom=1;right=1;left=1;top=0;fillColor=none;routingCenterX=-0.5;rotation=90;" parent="1" vertex="1">
          <mxGeometry x="258.75" y="220" width="52.5" height="10" as="geometry" />
        </mxCell>
        <mxCell id="1L9grkiTSk2YJUDUn9pY-3" value="" style="endArrow=none;dashed=1;html=1;rounded=0;entryX=0.5;entryY=1;entryDx=0;entryDy=0;entryPerimeter=0;" parent="1" target="1L9grkiTSk2YJUDUn9pY-2" edge="1">
          <mxGeometry width="50" height="50" relative="1" as="geometry">
            <mxPoint x="235" y="225" as="sourcePoint" />
            <mxPoint x="440" y="210" as="targetPoint" />
          </mxGeometry>
        </mxCell>
        <mxCell id="1L9grkiTSk2YJUDUn9pY-4" value="Добавляем пробел в начале, чтобы учесть первую подстроку&lt;br&gt;k -&amp;nbsp; счетчик палиндромов" style="text;html=1;align=left;verticalAlign=middle;whiteSpace=wrap;rounded=0;" parent="1" vertex="1">
          <mxGeometry x="290" y="210" width="230" height="30" as="geometry" />
        </mxCell>
        <mxCell id="1L9grkiTSk2YJUDUn9pY-7" value="" style="shape=partialRectangle;whiteSpace=wrap;html=1;bottom=1;right=1;left=1;top=0;fillColor=none;routingCenterX=-0.5;rotation=90;" parent="1" vertex="1">
          <mxGeometry x="265" y="375" width="30" height="10" as="geometry" />
        </mxCell>
        <mxCell id="1L9grkiTSk2YJUDUn9pY-8" value="" style="endArrow=none;dashed=1;html=1;rounded=0;entryX=0.5;entryY=1;entryDx=0;entryDy=0;entryPerimeter=0;" parent="1" target="1L9grkiTSk2YJUDUn9pY-7" edge="1">
          <mxGeometry width="50" height="50" relative="1" as="geometry">
            <mxPoint x="230" y="380" as="sourcePoint" />
            <mxPoint x="435" y="365" as="targetPoint" />
          </mxGeometry>
        </mxCell>
        <mxCell id="1L9grkiTSk2YJUDUn9pY-9" value="Если текущий символ не пробел и предыдущий был пробел" style="text;html=1;align=left;verticalAlign=middle;whiteSpace=wrap;rounded=0;" parent="1" vertex="1">
          <mxGeometry x="285" y="365" width="245" height="30" as="geometry" />
        </mxCell>
        <mxCell id="1L9grkiTSk2YJUDUn9pY-11" value="" style="shape=partialRectangle;whiteSpace=wrap;html=1;bottom=1;right=1;left=1;top=0;fillColor=none;routingCenterX=-0.5;rotation=90;" parent="1" vertex="1">
          <mxGeometry x="270" y="450" width="30" height="10" as="geometry" />
        </mxCell>
        <mxCell id="1L9grkiTSk2YJUDUn9pY-12" value="" style="endArrow=none;dashed=1;html=1;rounded=0;entryX=0.5;entryY=1;entryDx=0;entryDy=0;entryPerimeter=0;" parent="1" target="1L9grkiTSk2YJUDUn9pY-11" edge="1">
          <mxGeometry width="50" height="50" relative="1" as="geometry">
            <mxPoint x="235" y="455" as="sourcePoint" />
            <mxPoint x="440" y="440" as="targetPoint" />
          </mxGeometry>
        </mxCell>
        <mxCell id="1L9grkiTSk2YJUDUn9pY-13" value="s1 := &#39;&#39; - oбнуляем временную строку" style="text;html=1;align=left;verticalAlign=middle;whiteSpace=wrap;rounded=0;" parent="1" vertex="1">
          <mxGeometry x="290" y="440" width="134" height="30" as="geometry" />
        </mxCell>
        <mxCell id="1L9grkiTSk2YJUDUn9pY-14" value="" style="shape=partialRectangle;whiteSpace=wrap;html=1;bottom=1;right=1;left=1;top=0;fillColor=none;routingCenterX=-0.5;rotation=90;" parent="1" vertex="1">
          <mxGeometry x="270" y="545" width="30" height="10" as="geometry" />
        </mxCell>
        <mxCell id="1L9grkiTSk2YJUDUn9pY-15" value="" style="endArrow=none;dashed=1;html=1;rounded=0;entryX=0.5;entryY=1;entryDx=0;entryDy=0;entryPerimeter=0;" parent="1" target="1L9grkiTSk2YJUDUn9pY-14" edge="1">
          <mxGeometry width="50" height="50" relative="1" as="geometry">
            <mxPoint x="235" y="550" as="sourcePoint" />
            <mxPoint x="440" y="535" as="targetPoint" />
          </mxGeometry>
        </mxCell>
        <mxCell id="1L9grkiTSk2YJUDUn9pY-16" value="Формируем подстроку до следующего пробела" style="text;html=1;align=left;verticalAlign=middle;whiteSpace=wrap;rounded=0;" parent="1" vertex="1">
          <mxGeometry x="290" y="535" width="170" height="30" as="geometry" />
        </mxCell>
        <mxCell id="1L9grkiTSk2YJUDUn9pY-18" value="" style="shape=partialRectangle;whiteSpace=wrap;html=1;bottom=1;right=1;left=1;top=0;fillColor=none;routingCenterX=-0.5;rotation=90;" parent="1" vertex="1">
          <mxGeometry x="270" y="620" width="30" height="10" as="geometry" />
        </mxCell>
        <mxCell id="1L9grkiTSk2YJUDUn9pY-19" value="" style="endArrow=none;dashed=1;html=1;rounded=0;entryX=0.5;entryY=1;entryDx=0;entryDy=0;entryPerimeter=0;" parent="1" target="1L9grkiTSk2YJUDUn9pY-18" edge="1">
          <mxGeometry width="50" height="50" relative="1" as="geometry">
            <mxPoint x="235" y="625" as="sourcePoint" />
            <mxPoint x="440" y="610" as="targetPoint" />
          </mxGeometry>
        </mxCell>
        <mxCell id="1L9grkiTSk2YJUDUn9pY-20" value="Добавляем символы к временной строке" style="text;html=1;align=left;verticalAlign=middle;whiteSpace=wrap;rounded=0;" parent="1" vertex="1">
          <mxGeometry x="290" y="610" width="170" height="30" as="geometry" />
        </mxCell>
        <mxCell id="1L9grkiTSk2YJUDUn9pY-27" value="" style="shape=partialRectangle;whiteSpace=wrap;html=1;bottom=1;right=1;left=1;top=0;fillColor=none;routingCenterX=-0.5;rotation=90;" parent="1" vertex="1">
          <mxGeometry x="265" y="851" width="30" height="10" as="geometry" />
        </mxCell>
        <mxCell id="1L9grkiTSk2YJUDUn9pY-28" value="" style="endArrow=none;dashed=1;html=1;rounded=0;entryX=0.5;entryY=1;entryDx=0;entryDy=0;entryPerimeter=0;" parent="1" target="1L9grkiTSk2YJUDUn9pY-27" edge="1">
          <mxGeometry width="50" height="50" relative="1" as="geometry">
            <mxPoint x="235" y="856" as="sourcePoint" />
            <mxPoint x="435" y="841" as="targetPoint" />
          </mxGeometry>
        </mxCell>
        <mxCell id="1L9grkiTSk2YJUDUn9pY-29" value="Увеличиваем счетчик палиндромов" style="text;html=1;align=left;verticalAlign=middle;whiteSpace=wrap;rounded=0;" parent="1" vertex="1">
          <mxGeometry x="285" y="841" width="170" height="30" as="geometry" />
        </mxCell>
        <mxCell id="1L9grkiTSk2YJUDUn9pY-32" value="" style="shape=partialRectangle;whiteSpace=wrap;html=1;bottom=1;right=1;left=1;top=0;fillColor=none;routingCenterX=-0.5;rotation=90;" parent="1" vertex="1">
          <mxGeometry x="265" y="941" width="30" height="10" as="geometry" />
        </mxCell>
        <mxCell id="1L9grkiTSk2YJUDUn9pY-33" value="" style="endArrow=none;dashed=1;html=1;rounded=0;entryX=0.5;entryY=1;entryDx=0;entryDy=0;entryPerimeter=0;" parent="1" target="1L9grkiTSk2YJUDUn9pY-32" edge="1">
          <mxGeometry width="50" height="50" relative="1" as="geometry">
            <mxPoint x="235" y="946" as="sourcePoint" />
            <mxPoint x="435" y="931" as="targetPoint" />
          </mxGeometry>
        </mxCell>
        <mxCell id="1L9grkiTSk2YJUDUn9pY-34" value="Обновляем индекс i, чтобы пропустить уже обработанную подстроку" style="text;html=1;align=left;verticalAlign=middle;whiteSpace=wrap;rounded=0;" parent="1" vertex="1">
          <mxGeometry x="285" y="931" width="245" height="30" as="geometry" />
        </mxCell>
        <mxCell id="1L9grkiTSk2YJUDUn9pY-39" value="" style="shape=partialRectangle;whiteSpace=wrap;html=1;bottom=1;right=1;left=1;top=0;fillColor=none;routingCenterX=-0.5;rotation=90;" parent="1" vertex="1">
          <mxGeometry x="265" y="1171" width="30" height="10" as="geometry" />
        </mxCell>
        <mxCell id="1L9grkiTSk2YJUDUn9pY-40" value="" style="endArrow=none;dashed=1;html=1;rounded=0;entryX=0.5;entryY=1;entryDx=0;entryDy=0;entryPerimeter=0;" parent="1" target="1L9grkiTSk2YJUDUn9pY-39" edge="1">
          <mxGeometry width="50" height="50" relative="1" as="geometry">
            <mxPoint x="235" y="1176" as="sourcePoint" />
            <mxPoint x="435" y="1161" as="targetPoint" />
          </mxGeometry>
        </mxCell>
        <mxCell id="1L9grkiTSk2YJUDUn9pY-41" value="Возвращаем количество палиндромов" style="text;html=1;align=left;verticalAlign=middle;whiteSpace=wrap;rounded=0;" parent="1" vertex="1">
          <mxGeometry x="285" y="1161" width="245" height="30" as="geometry" />
        </mxCell>
        <mxCell id="1L9grkiTSk2YJUDUn9pY-42" value="" style="shape=partialRectangle;whiteSpace=wrap;html=1;bottom=1;right=1;left=1;top=0;fillColor=none;routingCenterX=-0.5;rotation=90;" parent="1" vertex="1">
          <mxGeometry x="-145" y="150" width="30" height="10" as="geometry" />
        </mxCell>
        <mxCell id="1L9grkiTSk2YJUDUn9pY-43" value="" style="endArrow=none;dashed=1;html=1;rounded=0;entryX=0.5;entryY=1;entryDx=0;entryDy=0;entryPerimeter=0;" parent="1" target="1L9grkiTSk2YJUDUn9pY-42" edge="1">
          <mxGeometry width="50" height="50" relative="1" as="geometry">
            <mxPoint x="-180" y="155" as="sourcePoint" />
            <mxPoint x="25" y="140" as="targetPoint" />
          </mxGeometry>
        </mxCell>
        <mxCell id="1L9grkiTSk2YJUDUn9pY-44" value="ввод заданной строки" style="text;html=1;align=left;verticalAlign=middle;whiteSpace=wrap;rounded=0;" parent="1" vertex="1">
          <mxGeometry x="-125" y="140" width="134" height="30" as="geometry" />
        </mxCell>
        <mxCell id="1L9grkiTSk2YJUDUn9pY-45" value="" style="shape=partialRectangle;whiteSpace=wrap;html=1;bottom=1;right=1;left=1;top=0;fillColor=none;routingCenterX=-0.5;rotation=90;" parent="1" vertex="1">
          <mxGeometry x="-142.5" y="229" width="30" height="10" as="geometry" />
        </mxCell>
        <mxCell id="1L9grkiTSk2YJUDUn9pY-46" value="" style="endArrow=none;dashed=1;html=1;rounded=0;entryX=0.5;entryY=1;entryDx=0;entryDy=0;entryPerimeter=0;" parent="1" target="1L9grkiTSk2YJUDUn9pY-45" edge="1">
          <mxGeometry width="50" height="50" relative="1" as="geometry">
            <mxPoint x="-177.5" y="234" as="sourcePoint" />
            <mxPoint x="27.5" y="219" as="targetPoint" />
          </mxGeometry>
        </mxCell>
        <mxCell id="1L9grkiTSk2YJUDUn9pY-47" value="Применение функции Kol к заданной строке" style="text;html=1;align=left;verticalAlign=middle;whiteSpace=wrap;rounded=0;" parent="1" vertex="1">
          <mxGeometry x="-122.5" y="219" width="134" height="30" as="geometry" />
        </mxCell>
        <mxCell id="1L9grkiTSk2YJUDUn9pY-55" value="" style="shape=partialRectangle;whiteSpace=wrap;html=1;bottom=1;right=1;left=1;top=0;fillColor=none;routingCenterX=-0.5;rotation=90;" parent="1" vertex="1">
          <mxGeometry x="-145" y="310" width="30" height="10" as="geometry" />
        </mxCell>
        <mxCell id="1L9grkiTSk2YJUDUn9pY-56" value="" style="endArrow=none;dashed=1;html=1;rounded=0;entryX=0.5;entryY=1;entryDx=0;entryDy=0;entryPerimeter=0;" parent="1" target="1L9grkiTSk2YJUDUn9pY-55" edge="1">
          <mxGeometry width="50" height="50" relative="1" as="geometry">
            <mxPoint x="-180" y="315" as="sourcePoint" />
            <mxPoint x="25" y="300" as="targetPoint" />
          </mxGeometry>
        </mxCell>
        <mxCell id="1L9grkiTSk2YJUDUn9pY-57" value="Вывод результата" style="text;html=1;align=left;verticalAlign=middle;whiteSpace=wrap;rounded=0;" parent="1" vertex="1">
          <mxGeometry x="-125" y="300" width="134" height="30" as="geometry" />
        </mxCell>
        <mxCell id="1L9grkiTSk2YJUDUn9pY-58" value="да" style="text;html=1;align=center;verticalAlign=middle;whiteSpace=wrap;rounded=0;" parent="1" vertex="1">
          <mxGeometry x="140" y="400" width="30" height="20" as="geometry" />
        </mxCell>
        <mxCell id="1L9grkiTSk2YJUDUn9pY-59" value="нет" style="text;html=1;align=center;verticalAlign=middle;whiteSpace=wrap;rounded=0;" parent="1" vertex="1">
          <mxGeometry x="215" y="360" width="30" height="20" as="geometry" />
        </mxCell>
        <mxCell id="1L9grkiTSk2YJUDUn9pY-60" value="да" style="text;html=1;align=center;verticalAlign=middle;whiteSpace=wrap;rounded=0;" parent="1" vertex="1">
          <mxGeometry x="140" y="800" width="30" height="20" as="geometry" />
        </mxCell>
        <mxCell id="1L9grkiTSk2YJUDUn9pY-61" value="нет" style="text;html=1;align=center;verticalAlign=middle;whiteSpace=wrap;rounded=0;" parent="1" vertex="1">
          <mxGeometry x="217" y="761" width="30" height="20" as="geometry" />
        </mxCell>
        <mxCell id="XTfW5Y6BEK97zmMu7D7K-1" value="ЗАДАЧА №68&lt;div&gt;Подсчитайте, сколько палиндромов содержатся в качестве подстрок в заданной строке.&amp;nbsp;&lt;br&gt;&lt;/div&gt;" style="text;html=1;align=center;verticalAlign=middle;whiteSpace=wrap;rounded=0;" parent="1" vertex="1">
          <mxGeometry x="-122.5" y="70" width="210" height="30" as="geometry" />
        </mxCell>
      </root>
    </mxGraphModel>
  </diagram>
</mxfile>
